<?xml version="1.0" standalone="no"?>
<!DOCTYPE svg PUBLIC "-//W3C//DTD SVG 20010904//EN"
 "http://www.w3.org/TR/2001/REC-SVG-20010904/DTD/svg10.dtd">
<svg version="1.0" xmlns="http://www.w3.org/2000/svg"
 width="96.000000pt" height="96.000000pt" viewBox="0 0 96.000000 96.000000"
 preserveAspectRatio="xMidYMid meet">
<metadata>
Created by potrace 1.14, written by Peter Selinger 2001-2017
</metadata>
<g transform="translate(0.000000,96.000000) scale(0.100000,-0.100000)"
fill="#000000" stroke="none">
<path d="M133 833 c-10 -4 -13 -84 -13 -353 0 -308 2 -349 16 -354 24 -9 677
-7 692 3 8 5 12 17 10 27 -3 18 -19 19 -331 22 l-327 2 0 324 c0 286 -2 325
-16 330 -9 3 -16 6 -17 5 -1 0 -8 -3 -14 -6z"/>
<path d="M404 768 c-25 -12 -44 -48 -44 -84 0 -37 51 -84 90 -84 43 0 90 47
90 90 0 65 -75 108 -136 78z m60 -54 c9 -3 16 -14 16 -24 0 -20 -33 -36 -50
-25 -14 9 -12 42 3 48 6 3 13 6 14 6 1 1 8 -2 17 -5z"/>
<path d="M266 705 c-8 -22 4 -45 24 -45 20 0 32 23 24 45 -4 8 -14 15 -24 15
-10 0 -20 -7 -24 -15z"/>
<path d="M591 711 c-15 -10 -6 -51 12 -51 25 0 39 18 32 39 -7 22 -21 26 -44
12z"/>
<path d="M745 699 c-7 -21 7 -39 32 -39 18 0 27 41 12 51 -23 14 -37 10 -44
-12z"/>
<path d="M706 569 c-35 -41 -34 -83 3 -120 20 -20 39 -29 61 -29 22 0 41 9 61
29 37 37 38 79 3 120 -20 25 -34 31 -64 31 -30 0 -44 -6 -64 -31z m78 -35 c32
-12 13 -54 -24 -54 -12 0 -23 37 -15 50 7 12 17 13 39 4z"/>
<path d="M266 525 c-8 -22 4 -45 24 -45 20 0 32 23 24 45 -4 8 -14 15 -24 15
-10 0 -20 -7 -24 -15z"/>
<path d="M425 520 c-11 -34 12 -51 44 -31 19 12 4 51 -19 51 -10 0 -21 -9 -25
-20z"/>
<path d="M593 533 c-21 -8 -15 -41 8 -48 23 -8 41 9 36 35 -2 16 -24 22 -44
13z"/>
<path d="M549 391 c-20 -20 -29 -39 -29 -61 0 -39 47 -90 84 -90 79 0 119 72
79 140 -29 49 -91 54 -134 11z m85 -46 c8 -23 -4 -45 -24 -45 -24 0 -33 15
-25 40 7 23 40 27 49 5z"/>
<path d="M266 345 c-7 -19 3 -45 18 -45 24 0 38 18 31 39 -7 24 -40 28 -49 6z"/>
<path d="M433 353 c-18 -7 -16 -40 3 -47 25 -10 32 -7 39 15 9 28 -12 45 -42
32z"/>
<path d="M745 339 c-7 -21 7 -39 31 -39 15 0 25 26 18 45 -9 22 -42 18 -49 -6z"/>
</g>
</svg>
